<?xml version="1.0" encoding="UTF-8"?>
<svg id="Ebene_1" data-name="Ebene 1" xmlns="http://www.w3.org/2000/svg" version="1.1" viewBox="0 0 118.4 35.4">
  <defs>
    <style>
      .cls-1 {
        fill: #cee397;
      }

      .cls-1, .cls-2, .cls-3, .cls-4, .cls-5 {
        stroke-width: 0px;
      }

      .cls-1, .cls-3, .cls-4, .cls-5 {
        fill-rule: evenodd;
      }

      .cls-2, .cls-4 {
        fill: #587792;
      }

      .cls-3 {
        fill: #8db1ab;
      }

      .cls-5 {
        fill: #f4e04d;
      }
    </style>
  </defs>
  <path id="Shape" class="cls-2" d="M40.7,18v5.6h2.3c1.4,0,2.4-.2,3.1-.7.7-.4,1-1.1,1-2.1s-.3-1.6-1-2.1c-.7-.5-1.6-.8-2.7-.8h-2.6ZM40.7,11.7v5.4h2.2c.9,0,1.6-.2,2.2-.8.5-.5.8-1.2.8-2s-.3-1.5-.8-2c-.6-.5-1.3-.7-2.3-.7h-2ZM39.6,24.6v-13.8h3.2c1.3,0,2.3.3,3.1.9.8.6,1.1,1.5,1.1,2.5s-.2,1.3-.5,1.8c-.3.5-.8.9-1.5,1.2,1,.3,1.8.7,2.4,1.3.5.6.8,1.4.8,2.3s-.1,1.1-.4,1.6c-.3.5-.7.9-1.2,1.2-.4.2-.8.4-1.4.5-.5.1-1.3.1-2.4.1h-3.2ZM50.7,24.6v-13.8h1.2v13.8h-1.2ZM55.6,17.7c0,.8.2,1.6.4,2.3.3.8.7,1.4,1.3,2,.6.6,1.2,1,2,1.3.8.3,1.5.5,2.3.5s1.6-.1,2.3-.5c.7-.3,1.4-.8,1.9-1.3.6-.6,1-1.2,1.3-2,.3-.8.5-1.5.5-2.4s-.2-1.6-.5-2.3c-.3-.7-.7-1.4-1.3-2-.6-.6-1.2-1-2-1.3-.7-.3-1.5-.5-2.3-.5s-1.6.2-2.3.5c-.7.3-1.4.8-2,1.3-.6.6-1,1.2-1.3,2-.3.7-.4,1.5-.4,2.4ZM54.4,17.6c0-.9.2-1.8.5-2.7.4-.9.9-1.6,1.6-2.3.7-.7,1.5-1.2,2.4-1.5.9-.4,1.8-.5,2.8-.5s1.9.2,2.8.5c.9.3,1.6.9,2.3,1.5.7.7,1.2,1.5,1.6,2.3.4.9.5,1.8.5,2.7s-.1,1.4-.3,2.1c-.2.7-.5,1.3-.9,1.9-.7,1-1.5,1.8-2.6,2.3-1,.5-2.2.8-3.4.8s-1.9-.2-2.8-.5c-.9-.4-1.7-.9-2.3-1.5-.7-.7-1.2-1.5-1.6-2.3-.4-.9-.5-1.8-.5-2.8ZM72.3,11.7v5.5h2.1c1.2,0,2.1-.2,2.6-.7.6-.4.8-1.1.8-2.1s-.3-1.6-.8-2c-.6-.5-1.4-.7-2.4-.7h-2.3ZM71.2,10.8h3.3c1.5,0,2.6.3,3.4.9.8.6,1.1,1.5,1.1,2.8s-.4,2-1.1,2.7c-.7.7-1.7,1-2.9,1h-2.7v6.4h-1.1v-13.8ZM81.7,17.7c0,.8.2,1.6.5,2.3.3.8.7,1.4,1.3,2,.6.6,1.2,1,2,1.3.7.3,1.5.5,2.3.5s1.6-.1,2.3-.5c.7-.3,1.4-.8,1.9-1.3.6-.6,1-1.2,1.3-2,.3-.8.5-1.5.5-2.4s-.1-1.6-.4-2.3c-.3-.7-.7-1.4-1.3-2-.6-.6-1.2-1-2-1.3-.7-.3-1.5-.5-2.3-.5s-1.6.2-2.3.5c-.7.3-1.4.8-2,1.3-.6.6-1,1.2-1.3,2-.3.7-.4,1.5-.4,2.4ZM80.5,17.6c0-.9.2-1.8.5-2.7.4-.9.9-1.6,1.6-2.3.7-.7,1.5-1.2,2.3-1.5.9-.4,1.8-.5,2.8-.5s1.9.2,2.8.5c.9.3,1.7.9,2.3,1.5.7.7,1.2,1.5,1.6,2.3.4.9.5,1.8.5,2.7s0,1.4-.3,2.1c-.2.7-.5,1.3-.9,1.9-.7,1-1.5,1.8-2.6,2.3-1.1.5-2.2.8-3.4.8s-1.9-.2-2.8-.5c-.9-.4-1.7-.9-2.3-1.5-.7-.7-1.2-1.5-1.6-2.3-.4-.9-.5-1.8-.5-2.8ZM97.4,24.6v-13.8h1.2v12.8h6.5v.9h-7.6ZM107,24.6v-13.8h1.2v13.8h-1.2ZM117.9,12.8c-.6-.4-1.1-.7-1.6-.9-.5-.2-1-.3-1.5-.3-.8,0-1.5.2-2,.7-.5.5-.8,1.1-.8,1.8s.2,1.1.5,1.5c.3.4,1.1.8,2.2,1.3,0,0,.2,0,.3.1,1.3.5,2.1,1,2.5,1.5.3.3.5.7.7,1.1.1.4.2.8.2,1.3,0,1.1-.4,2-1.1,2.7-.8.7-1.7,1.1-2.9,1.1s-1.2-.1-1.8-.3c-.6-.2-1.2-.5-1.8-.9v-1.3c.7.5,1.3.9,1.8,1.1.6.2,1.2.4,1.7.4.9,0,1.6-.2,2.1-.7.5-.5.8-1.2.8-2s-.2-1.1-.5-1.5c-.4-.4-1.2-.9-2.4-1.4-1.3-.5-2.2-1.1-2.7-1.6-.5-.6-.7-1.3-.7-2.1s.4-1.9,1.1-2.6c.7-.7,1.7-1,2.9-1s1.1,0,1.6.2c.5.2,1,.4,1.5.7v1.2Z"/>
  <polygon id="Path" class="cls-5" points="22.5 18.4 23.9 17.6 28.2 18.1 34.8 20.4 30.8 17.8 35.3 17.5 31.5 16.8 32.5 15.3 29 17.6 25.1 16.2 28.3 12.9 34.6 13 34.6 12.8 29.6 12.2 33.4 9.7 33.3 9.5 29.4 10.6 31.1 6.3 31 6.2 28.6 11.6 24.8 14.8 27.3 9.1 27.2 8.9 24.4 14 23 16.8 21.6 16.9 20.5 11.9 22.8 8.2 27.5 3 27.3 2.9 23.5 5.6 25.2 1.5 25 1.4 22.9 4.7 22 2.9 21.9 3 22.6 7.2 19.8 10.2 18 6 20.8 .4 20.6 .2 17.9 4.5 17.1 0 16.9 0 16.3 4.1 13.1 .8 12.9 .9 16.9 5.2 18.4 9.9 14 5.4 13.8 5.5 17.5 10 19.5 12.4 20 14.6 19.2 14.8 14 12.6 12.2 8.7 10.7 1.8 10.6 1.9 10.5 6.7 8.1 3 7.8 3.1 9.4 6.6 7.5 6.4 7.5 6.5 11.3 8.3 12.2 12.3 7.8 11.4 4.5 6 6.4 10.7 2.2 8.9 5.2 11.7 .7 12.7 6.5 11.8 11.2 13.3 5 14.4 10.7 14.1 13.9 13.8 16.2 14.7 18.7 17.8 17.9 18.7 15.2 19.8 12.7 19.8 9.9 18.4 4.7 16 10.1 19.3 5.1 19 0 16.1 3.9 18.7 0 20.2 4.7 20 1.1 23.7 6.2 19.8 10.6 20.6 8.4 24 4.1 24.3 5.9 24.9 3.2 27.7 7 25.2 5.3 29.8 9.4 24 12.4 21 18.2 20.8 17.5 23.1 14.7 24.6 9.8 27.6 15.5 25 12.5 28.9 7.2 31.5 11.5 29.8 10.6 33.7 13.1 29.9 14.1 34.8 13.8 28.5 16.9 25.2 18.5 29.1 16.3 32.7 17.8 31.6 18.6 35.4 18.7 30.9 21.5 34.8 19 28.2 18.2 24 21.1 19.5 21.9 20.4 22.6 23.4 23.4 29.1 23.3 22.8 25.7 27.1 25.9 33 26.1 28.4 29.4 30.8 26.8 27 31.8 28 25.8 25.8 24.1 21.6 28.2 21.7 30.7 25.1 30.2 23.3 34 24.1 30 22.2 34.7 21.2 27.6 20.9 23.5 19.9 22.5 18.4"/>
  <polygon id="Path-2" data-name="Path" class="cls-1" points="22.5 18.4 23.9 17.6 28.2 18.1 34.8 20.4 34.9 20.2 30.8 17.8 35.3 17.5 35.3 17.3 31.5 16.8 32.7 15.4 32.5 15.3 29 17.6 25.1 16.2 28.3 12.9 28.6 11.6 24.8 14.8 24.4 14 23 16.8 21.6 16.9 21.5 16.8 19.2 14.8 14 12.6 12.2 12.3 7.8 11.4 4.6 6 4.5 6 6.4 10.7 2.2 8.9 2.2 9.1 5.2 11.7 .8 12.5 .7 12.7 6.5 11.8 11.2 13.3 5 14.4 5.2 14.6 10.7 14.1 13.9 13.8 16.2 14.7 18.7 17.8 17.9 18.7 15.2 19.8 12.7 19.8 9.9 18.4 4.7 16 10.1 19.3 5.1 19 0 16.1 3.9 18.7 0 20.2 4.7 20 1.1 23.7 6.2 19.8 10.6 20.6 8.4 24 4.1 24.3 4.3 24.3 5.9 24.9 3.2 27.7 7 25.2 5.3 29.8 9.4 24 12.4 21 18.2 20.8 17.5 23.1 14.7 24.6 9.8 27.6 15.5 25 12.5 28.9 7.2 31.5 11.5 29.8 10.6 33.7 13.1 29.9 14.1 34.8 13.8 28.5 16.9 25.2 18.5 29.1 16.3 32.7 17.8 31.6 18.6 35.4 18.7 30.9 21.5 34.8 19 28.2 18.2 24 21.1 19.5 21.9 20.4 22.6 23.4 23.4 29.1 23.3 22.8 25.7 27.1 25.9 33 26.1 28.4 29.4 30.8 26.8 27 31.8 28 25.8 25.8 24.1 21.6 28.2 21.7 30.7 25.1 30.2 23.3 34 24.1 30 22.2 34.7 21.2 27.6 20.9 23.5 19.9 22.5 18.4"/>
  <polygon id="Path-3" data-name="Path" class="cls-3" points="22.5 18.4 23.9 17.6 23.9 17.6 21.6 16.9 18.7 17.8 17.9 18.7 15.2 19.8 12.7 19.8 9.9 18.4 4.8 15.9 4.7 16 10.1 19.3 5.1 19 .2 15.9 0 16.1 3.9 18.7 0 20 0 20.2 4.7 20 1.1 23.7 1.3 23.7 6.2 19.8 10.6 20.6 8.4 24 4.1 24.3 5.9 24.9 3.2 27.7 7 25.2 5.3 29.8 9.4 24 12.4 21 18.2 20.8 17.5 23.1 14.7 24.6 9.8 27.6 15.5 25 12.5 28.9 7.2 31.5 11.5 29.8 10.6 33.7 13.1 29.9 14.1 34.8 13.8 28.5 16.9 25.2 18.5 29.1 16.3 32.7 17.8 31.6 18.6 35.4 18.7 30.9 21.5 34.8 19 28.2 18.2 24 21.1 19.5 21.9 20.4 22.6 23.4 23.4 29.1 23.3 22.8 25.7 27.1 25.9 33 26.1 28.4 29.4 30.8 26.8 27 31.8 28 25.8 25.8 24.1 21.6 28.2 21.7 30.5 25.2 30.8 25 30.2 23.3 34 24.2 34 24.1 30 22.2 34.6 21.4 34.7 21.2 27.6 20.9 23.5 19.9 22.5 18.4"/>
  <path id="Shape-2" data-name="Shape" class="cls-4" d="M8.4,24h0-4.2c0,.1,0,.2,0,.2l1.8.6-2.7,2.8h.2c0,0,3.6-2.4,3.6-2.4l-1.7,4.5h.3s3.7-5.8,3.7-5.8h-1ZM17.5,23.1l-2.8,1.6-4.9,3h.2c0,0,5.5-2.6,5.5-2.6l-3.1,3.9-5.3,2.6h.1c0,.1,4.1-1.2,4.1-1.2l-.8,3.5h.2c0,.1,2.3-3.9,2.3-3.9l.8,4.8.2.2-.3-6.3,3.1-3.3,1.6,3.8-2.2,3.6h.2c0,0,1.3-1.1,1.3-1.1l.6,3.8h.2s.1-4.5.1-4.5l2.5,3.9h.3s-2.5-6.5-2.5-6.5l-.8-4.2-.8-.9ZM22.6,23.4l.8,5.7h.2s-.4-6.3-.4-6.3l-.7.6ZM23.3,22.8l2.4,4.4v5.8c.1,0,.4,0,.4,0v-4.7s3.3,2.4,3.3,2.4h.1c0-.1-2.7-3.8-2.7-3.8l4.9,1.3v-.3c.1,0-5.8-2.2-5.8-2.2l-.8-1.8-1.8-1.2Z"/>
  <polygon id="Path-4" data-name="Path" class="cls-5" points="22.5 18.4 23.9 17.6 28.2 18.1 34.8 20.4 30.8 17.8 35.3 17.5 31.5 16.8 32.5 15.3 29 17.6 25.1 16.2 28.3 12.9 34.6 13 34.6 12.8 29.6 12.2 33.4 9.7 33.3 9.5 29.4 10.6 31.1 6.3 31 6.2 28.6 11.6 24.8 14.8 27.3 9.1 27.2 8.9 24.4 14 23 16.8 21.6 16.9 20.5 11.9 22.8 8.2 27.5 3 27.3 2.9 23.5 5.6 25.2 1.5 25 1.4 22.9 4.7 22 2.9 21.9 3 22.6 7.2 19.8 10.2 18 6 20.8 .4 20.6 .2 17.9 4.5 17.1 0 16.9 0 16.3 4.1 13.1 .8 12.9 .9 16.9 5.2 18.4 9.9 14 5.4 13.8 5.5 17.5 10 19.5 12.4 20 14.6 19.2 14.8 14 12.6 12.2 8.7 10.7 1.8 10.6 1.9 10.5 6.7 8.1 3 7.8 3.1 9.4 6.6 7.5 6.4 7.5 6.5 11.3 8.3 12.2 12.3 7.8 11.4 4.5 6 6.4 10.7 2.2 8.9 5.2 11.7 .7 12.7 6.5 11.8 11.2 13.3 5 14.4 10.7 14.1 13.9 13.8 16.2 14.7 18.7 17.8 17.9 18.7 15.2 19.8 12.7 19.8 9.9 18.4 4.7 16 10.1 19.3 5.1 19 0 16.1 3.9 18.7 0 20.2 4.7 20 1.1 23.7 6.2 19.8 10.6 20.6 8.4 24 4.1 24.3 5.9 24.9 3.2 27.7 7 25.2 5.3 29.8 9.4 24 12.4 21 18.2 20.8 17.5 23.1 14.7 24.6 9.8 27.6 15.5 25 12.5 28.9 7.2 31.5 11.5 29.8 10.6 33.7 13.1 29.9 14.1 34.8 13.8 28.5 16.9 25.2 18.5 29.1 16.3 32.7 17.8 31.6 18.6 35.4 18.7 30.9 21.5 34.8 19 28.2 18.2 24 21.1 19.5 21.9 20.4 22.6 23.4 23.4 29.1 23.3 22.8 25.7 27.1 25.9 33 26.1 28.4 29.4 30.8 26.8 27 31.8 28 25.8 25.8 24.1 21.6 28.2 21.7 30.7 25.1 30.2 23.3 34 24.1 30 22.2 34.7 21.2 27.6 20.9 23.5 19.9 22.5 18.4"/>
  <polygon id="Path-5" data-name="Path" class="cls-1" points="22.5 18.4 23.9 17.6 28.2 18.1 34.8 20.4 34.9 20.2 30.8 17.8 35.3 17.5 35.3 17.3 31.5 16.8 32.7 15.4 32.5 15.3 29 17.6 25.1 16.2 28.3 12.9 28.6 11.6 24.8 14.8 24.4 14 23 16.8 21.6 16.9 21.5 16.8 19.2 14.8 14 12.6 12.2 12.3 7.8 11.4 4.6 6 4.5 6 6.4 10.7 2.2 8.9 2.2 9.1 5.2 11.7 .8 12.5 .7 12.7 6.5 11.8 11.2 13.3 5 14.4 5.2 14.6 10.7 14.1 13.9 13.8 16.2 14.7 18.7 17.8 17.9 18.7 15.2 19.8 12.7 19.8 9.9 18.4 4.7 16 10.1 19.3 5.1 19 0 16.1 3.9 18.7 0 20.2 4.7 20 1.1 23.7 6.2 19.8 10.6 20.6 8.4 24 4.1 24.3 4.3 24.3 5.9 24.9 3.2 27.7 7 25.2 5.3 29.8 9.4 24 12.4 21 18.2 20.8 17.5 23.1 14.7 24.6 9.8 27.6 15.5 25 12.5 28.9 7.2 31.5 11.5 29.8 10.6 33.7 13.1 29.9 14.1 34.8 13.8 28.5 16.9 25.2 18.5 29.1 16.3 32.7 17.8 31.6 18.6 35.4 18.7 30.9 21.5 34.8 19 28.2 18.2 24 21.1 19.5 21.9 20.4 22.6 23.4 23.4 29.1 23.3 22.8 25.7 27.1 25.9 33 26.1 28.4 29.4 30.8 26.8 27 31.8 28 25.8 25.8 24.1 21.6 28.2 21.7 30.7 25.1 30.2 23.3 34 24.1 30 22.2 34.7 21.2 27.6 20.9 23.5 19.9 22.5 18.4"/>
  <polygon id="Path-6" data-name="Path" class="cls-3" points="22.5 18.4 23.9 17.6 23.9 17.6 21.6 16.9 18.7 17.8 17.9 18.7 15.2 19.8 12.7 19.8 9.9 18.4 4.8 15.9 4.7 16 10.1 19.3 5.1 19 .2 15.9 0 16.1 3.9 18.7 0 20 0 20.2 4.7 20 1.1 23.7 1.3 23.7 6.2 19.8 10.6 20.6 8.4 24 4.1 24.3 5.9 24.9 3.2 27.7 7 25.2 5.3 29.8 9.4 24 12.4 21 18.2 20.8 17.5 23.1 14.7 24.6 9.8 27.6 15.5 25 12.5 28.9 7.2 31.5 11.5 29.8 10.6 33.7 13.1 29.9 14.1 34.8 13.8 28.5 16.9 25.2 18.5 29.1 16.3 32.7 17.8 31.6 18.6 35.4 18.7 30.9 21.5 34.8 19 28.2 18.2 24 21.1 19.5 21.9 20.4 22.6 23.4 23.4 29.1 23.3 22.8 25.7 27.1 25.9 33 26.1 28.4 29.4 30.8 26.8 27 31.8 28 25.8 25.8 24.1 21.6 28.2 21.7 30.5 25.2 30.8 25 30.2 23.3 34 24.2 34 24.1 30 22.2 34.6 21.4 34.7 21.2 27.6 20.9 23.5 19.9 22.5 18.4"/>
  <path id="Shape-3" data-name="Shape" class="cls-4" d="M8.4,24h0-4.2c0,.1,0,.2,0,.2l1.8.6-2.7,2.8h.2c0,0,3.6-2.4,3.6-2.4l-1.7,4.5h.3s3.7-5.8,3.7-5.8h-1ZM17.5,23.1l-2.8,1.6-4.9,3h.2c0,0,5.5-2.6,5.5-2.6l-3.1,3.9-5.3,2.6h.1c0,.1,4.1-1.2,4.1-1.2l-.8,3.5h.2c0,.1,2.3-3.9,2.3-3.9l.8,4.8.2.2-.3-6.3,3.1-3.3,1.6,3.8-2.2,3.6h.2c0,0,1.3-1.1,1.3-1.1l.6,3.8h.2s.1-4.5.1-4.5l2.5,3.9h.3s-2.5-6.5-2.5-6.5l-.8-4.2-.8-.9ZM22.6,23.4l.8,5.7h.2s-.4-6.3-.4-6.3l-.7.6ZM23.3,22.8l2.4,4.4v5.8c.1,0,.4,0,.4,0v-4.7s3.3,2.4,3.3,2.4h.1c0-.1-2.7-3.8-2.7-3.8l4.9,1.3v-.3c.1,0-5.8-2.2-5.8-2.2l-.8-1.8-1.8-1.2Z"/>
</svg>