<?xml version="1.0" encoding="utf-8"?>
<!-- Generator: $$$/GeneralStr/196=Adobe Illustrator 27.6.0, SVG Export Plug-In . SVG Version: 6.00 Build 0)  -->
<svg version="1.1" id="Ebene_1" xmlns="http://www.w3.org/2000/svg" xmlns:xlink="http://www.w3.org/1999/xlink" x="0px" y="0px"
	 viewBox="0 0 453.5 255.1" style="enable-background:new 0 0 453.5 255.1;" xml:space="preserve">
<style type="text/css">
	.st0{fill:#F6F6F6;}
	.st1{fill:none;stroke:#000000;stroke-width:2.5;stroke-miterlimit:10;}
	.st2{fill:#98C020;}
	.st3{fill:#23A0A4;}
</style>
<rect class="st0" width="453.5" height="255.1"/>
<g>
	<g>
		<g>
			<g>
				<line class="st1" x1="1.4" y1="46.7" x2="1.4" y2="25.4"/>
				<line class="st1" x1="12.2" y1="39.9" x2="12.2" y2="13.9"/>
				<line class="st1" x1="22.9" y1="23.4" x2="22.9" y2="15.2"/>
				<line class="st1" x1="33.8" y1="25.4" x2="33.7" y2="13.2"/>
				<line class="st1" x1="44.4" y1="41.9" x2="44.4" y2="14.7"/>
				<line class="st1" x1="55.2" y1="47.2" x2="55.2" y2="27.4"/>
				<line class="st1" x1="66" y1="43.9" x2="66" y2="41.9"/>
				<g>
					<path class="st2" d="M35.4,30.7c-4.7-8.3-9.1-16.1-17.9-16.1C8.9,14.6,4.5,21.9,0,29.9c0-1.6,0-3.2,0-4.8c4.2-6.9,9-13,17.4-13
						c10.1,0,15.1,8.8,19.9,17.4c4.7,8.3,9.1,16.1,17.9,16.1v2.5C45.2,48.1,40.2,39.2,35.4,30.7z"/>
				</g>
				<g>
					<path class="st3" d="M75.4,47.9c-9.9-0.2-14.8-8.9-19.6-17.3c-4.7-8.3-9.1-16.1-17.9-16.1c-8.8,0-13.2,7.8-17.9,16.1
						C15.1,39.1,10.1,47.9,0,47.9l0-2.5c8.8,0,13.2-7.8,17.9-16.1c4.8-8.5,9.8-17.4,19.9-17.4c10.1,0,15.1,8.8,19.9,17.4
						c4.6,8.2,9,15.9,17.5,16.1C75.3,46.3,75.3,47.1,75.4,47.9z"/>
				</g>
				<g>
					<path class="st2" d="M75.6,30.1c-0.1,0.2-0.2,0.4-0.3,0.6c-4.8,8.5-9.8,17.4-19.9,17.4v-2.5c8.8,0,13.2-7.8,17.9-16.1
						c0.8-1.4,1.6-2.8,2.4-4.1C75.6,26.9,75.6,28.5,75.6,30.1z"/>
				</g>
			</g>
			<g>
				<line class="st1" x1="77" y1="46.7" x2="77" y2="25.4"/>
				<line class="st1" x1="87.8" y1="39.9" x2="87.8" y2="13.9"/>
				<line class="st1" x1="98.5" y1="23.4" x2="98.5" y2="15.2"/>
				<line class="st1" x1="109.4" y1="25.4" x2="109.3" y2="13.2"/>
				<line class="st1" x1="120" y1="41.9" x2="120" y2="14.7"/>
				<line class="st1" x1="130.8" y1="47.2" x2="130.8" y2="27.4"/>
				<line class="st1" x1="141.6" y1="43.9" x2="141.6" y2="41.9"/>
				<g>
					<path class="st2" d="M110.9,30.7c-4.7-8.3-9.1-16.1-17.9-16.1c-8.5,0-12.9,7.3-17.4,15.3c0-1.6,0-3.2,0-4.8
						c4.2-6.9,9-13,17.4-13c10.1,0,15.1,8.8,19.9,17.4c4.7,8.3,9.1,16.1,17.9,16.1v2.5C120.8,48.1,115.8,39.2,110.9,30.7z"/>
				</g>
				<g>
					<path class="st3" d="M150.9,47.9c-9.9-0.2-14.8-8.9-19.6-17.3c-4.7-8.3-9.1-16.1-17.9-16.1c-8.8,0-13.2,7.8-17.9,16.1
						c-4.8,8.5-9.8,17.4-19.9,17.4v-2.5c8.8,0,13.2-7.8,17.9-16.1c4.8-8.5,9.8-17.4,19.9-17.4c10.1,0,15.1,8.8,19.9,17.4
						c4.6,8.2,9,15.9,17.5,16.1C150.9,46.3,150.9,47.1,150.9,47.9z"/>
				</g>
				<g>
					<path class="st2" d="M151.2,30.1c-0.1,0.2-0.2,0.4-0.3,0.6c-4.8,8.5-9.8,17.4-19.9,17.4v-2.5c8.8,0,13.2-7.8,17.9-16.1
						c0.8-1.4,1.6-2.8,2.4-4.1C151.2,26.9,151.2,28.5,151.2,30.1z"/>
				</g>
			</g>
			<g>
				<line class="st1" x1="152.6" y1="46.7" x2="152.6" y2="25.4"/>
				<line class="st1" x1="163.4" y1="39.9" x2="163.4" y2="13.9"/>
				<line class="st1" x1="174.1" y1="23.4" x2="174.1" y2="15.2"/>
				<line class="st1" x1="185" y1="25.4" x2="184.9" y2="13.2"/>
				<line class="st1" x1="195.6" y1="41.9" x2="195.6" y2="14.7"/>
				<line class="st1" x1="206.4" y1="47.2" x2="206.4" y2="27.4"/>
				<line class="st1" x1="217.2" y1="43.9" x2="217.2" y2="41.9"/>
				<g>
					<path class="st2" d="M186.5,30.7c-4.7-8.3-9.1-16.1-17.9-16.1c-8.5,0-12.9,7.3-17.4,15.3c0-1.6,0-3.2,0-4.8
						c4.2-6.9,9-13,17.4-13c10.1,0,15.1,8.8,19.9,17.4c4.7,8.3,9.1,16.1,17.9,16.1v2.5C196.4,48.1,191.4,39.2,186.5,30.7z"/>
				</g>
				<g>
					<path class="st3" d="M226.5,47.9c-9.9-0.2-14.8-8.9-19.6-17.3c-4.7-8.3-9.1-16.1-17.9-16.1c-8.8,0-13.2,7.8-17.9,16.1
						c-4.8,8.5-9.8,17.4-19.9,17.4v-2.5c8.8,0,13.2-7.8,17.9-16.1c4.8-8.5,9.8-17.4,19.9-17.4c10.1,0,15.1,8.8,19.9,17.4
						c4.6,8.2,9,15.9,17.5,16.1C226.5,46.3,226.5,47.1,226.5,47.9z"/>
				</g>
				<g>
					<path class="st2" d="M226.8,30.1c-0.1,0.2-0.2,0.4-0.3,0.6c-4.8,8.5-9.8,17.4-19.9,17.4v-2.5c8.8,0,13.2-7.8,17.9-16.1
						c0.8-1.4,1.6-2.8,2.4-4.1C226.8,26.9,226.8,28.5,226.8,30.1z"/>
				</g>
			</g>
			<g>
				<line class="st1" x1="228.2" y1="46.7" x2="228.2" y2="25.4"/>
				<line class="st1" x1="239" y1="39.9" x2="239" y2="13.9"/>
				<line class="st1" x1="249.7" y1="23.4" x2="249.7" y2="15.2"/>
				<line class="st1" x1="260.5" y1="25.4" x2="260.5" y2="13.2"/>
				<line class="st1" x1="271.2" y1="41.9" x2="271.2" y2="14.7"/>
				<line class="st1" x1="282" y1="47.2" x2="282" y2="27.4"/>
				<line class="st1" x1="292.8" y1="43.9" x2="292.8" y2="41.9"/>
				<g>
					<path class="st2" d="M262.1,30.7c-4.7-8.3-9.1-16.1-17.9-16.1c-8.5,0-12.9,7.3-17.4,15.3c0-1.6,0-3.2,0-4.8
						c4.2-6.9,9-13,17.4-13c10.1,0,15.1,8.8,19.9,17.4c4.7,8.3,9.1,16.1,17.9,16.1v2.5C271.9,48.1,267,39.2,262.1,30.7z"/>
				</g>
				<g>
					<path class="st3" d="M302.1,47.9c-9.9-0.2-14.8-8.9-19.6-17.3c-4.7-8.3-9.1-16.1-17.9-16.1c-8.8,0-13.2,7.8-17.9,16.1
						c-4.8,8.5-9.8,17.4-19.9,17.4v-2.5c8.8,0,13.2-7.8,17.9-16.1c4.8-8.5,9.8-17.4,19.9-17.4c10.1,0,15.1,8.8,19.9,17.4
						c4.6,8.2,9,15.9,17.5,16.1C302.1,46.3,302.1,47.1,302.1,47.9z"/>
				</g>
				<g>
					<path class="st2" d="M302.4,30.1c-0.1,0.2-0.2,0.4-0.3,0.6c-4.8,8.5-9.8,17.4-19.9,17.4v-2.5c8.8,0,13.2-7.8,17.9-16.1
						c0.8-1.4,1.6-2.8,2.4-4.1C302.4,26.9,302.4,28.5,302.4,30.1z"/>
				</g>
			</g>
			<g>
				<line class="st1" x1="303.8" y1="46.7" x2="303.8" y2="25.4"/>
				<line class="st1" x1="314.5" y1="39.9" x2="314.5" y2="13.9"/>
				<line class="st1" x1="325.3" y1="23.4" x2="325.3" y2="15.2"/>
				<line class="st1" x1="336.1" y1="25.4" x2="336.1" y2="13.2"/>
				<line class="st1" x1="346.8" y1="41.9" x2="346.8" y2="14.7"/>
				<line class="st1" x1="357.6" y1="47.2" x2="357.6" y2="27.4"/>
				<line class="st1" x1="368.4" y1="43.9" x2="368.4" y2="41.9"/>
				<g>
					<path class="st2" d="M337.7,30.7c-4.7-8.3-9.1-16.1-17.9-16.1c-8.5,0-12.9,7.3-17.4,15.3c0-1.6,0-3.2,0-4.8
						c4.2-6.9,9-13,17.4-13c10.1,0,15.1,8.8,19.9,17.4c4.7,8.3,9.1,16.1,17.9,16.1v2.5C347.5,48.1,342.5,39.2,337.7,30.7z"/>
				</g>
				<g>
					<path class="st3" d="M377.7,47.9c-9.9-0.2-14.8-8.9-19.6-17.3c-4.7-8.3-9.1-16.1-17.9-16.1c-8.8,0-13.2,7.8-17.9,16.1
						c-4.8,8.5-9.8,17.4-19.9,17.4v-2.5c8.8,0,13.2-7.8,17.9-16.1c4.8-8.5,9.8-17.4,19.9-17.4c10.1,0,15.1,8.8,19.9,17.4
						c4.6,8.2,9,15.9,17.5,16.1C377.7,46.3,377.7,47.1,377.7,47.9z"/>
				</g>
				<g>
					<path class="st2" d="M377.9,30.1c-0.1,0.2-0.2,0.4-0.3,0.6c-4.8,8.5-9.8,17.4-19.9,17.4v-2.5c8.8,0,13.2-7.8,17.9-16.1
						c0.8-1.4,1.6-2.8,2.4-4.1C378,26.9,377.9,28.5,377.9,30.1z"/>
				</g>
			</g>
			<g>
				<line class="st1" x1="379.4" y1="46.7" x2="379.4" y2="25.4"/>
				<line class="st1" x1="390.1" y1="39.9" x2="390.1" y2="13.9"/>
				<line class="st1" x1="400.9" y1="23.4" x2="400.9" y2="15.2"/>
				<line class="st1" x1="411.7" y1="25.4" x2="411.7" y2="13.2"/>
				<line class="st1" x1="422.4" y1="41.9" x2="422.4" y2="14.7"/>
				<line class="st1" x1="433.2" y1="47.2" x2="433.2" y2="27.4"/>
				<line class="st1" x1="443.9" y1="43.9" x2="443.9" y2="41.9"/>
				<g>
					<path class="st2" d="M413.3,30.7c-4.7-8.3-9.1-16.1-17.9-16.1c-8.5,0-12.9,7.3-17.4,15.3c0-1.6,0-3.2,0-4.8
						c4.2-6.9,9-13,17.4-13c10.1,0,15.1,8.8,19.9,17.4c4.7,8.3,9.1,16.1,17.9,16.1v2.5C423.1,48.1,418.1,39.2,413.3,30.7z"/>
				</g>
				<g>
					<path class="st3" d="M453.3,47.9c-9.9-0.2-14.8-8.9-19.6-17.3c-4.7-8.3-9.1-16.1-17.9-16.1c-8.8,0-13.2,7.8-17.9,16.1
						c-4.8,8.5-9.8,17.4-19.9,17.4v-2.5c8.8,0,13.2-7.8,17.9-16.1c4.8-8.5,9.8-17.4,19.9-17.4c10.1,0,15.1,8.8,19.9,17.4
						c4.6,8.2,9,15.9,17.5,16.1C453.3,46.3,453.3,47.1,453.3,47.9z"/>
				</g>
				<g>
					<path class="st2" d="M453.5,30.1c-0.1,0.2-0.2,0.4-0.3,0.6c-4.8,8.5-9.8,17.4-19.9,17.4v-2.5c8.8,0,13.2-7.8,17.9-16.1
						c0.8-1.4,1.6-2.8,2.4-4.1C453.5,26.9,453.5,28.5,453.5,30.1z"/>
				</g>
			</g>
		</g>
	</g>
</g>
<g>
	<g>
		<g>
			<g>
				<line class="st1" x1="452.1" y1="208.4" x2="452.1" y2="229.7"/>
				<line class="st1" x1="441.4" y1="215.2" x2="441.4" y2="241.2"/>
				<line class="st1" x1="430.6" y1="231.7" x2="430.6" y2="239.9"/>
				<line class="st1" x1="419.8" y1="229.7" x2="419.8" y2="241.9"/>
				<line class="st1" x1="409.1" y1="213.2" x2="409.1" y2="240.4"/>
				<line class="st1" x1="398.3" y1="207.9" x2="398.3" y2="227.7"/>
				<line class="st1" x1="387.5" y1="211.2" x2="387.5" y2="213.2"/>
				<g>
					<path class="st2" d="M418.2,224.4c4.7,8.3,9.1,16.1,17.9,16.1c8.5,0,12.9-7.3,17.4-15.3c0,1.6,0,3.2,0,4.8
						c-4.2,6.9-9,13-17.4,13c-10.1,0-15.1-8.8-19.9-17.4c-4.7-8.3-9.1-16.1-17.9-16.1v-2.5C408.4,207.1,413.4,215.9,418.2,224.4z"/>
				</g>
				<g>
					<path class="st3" d="M378.2,207.2c9.9,0.2,14.8,8.9,19.6,17.3c4.7,8.3,9.1,16.1,17.9,16.1c8.8,0,13.2-7.8,17.9-16.1
						c4.8-8.5,9.8-17.4,19.9-17.4v2.5c-8.8,0-13.2,7.8-17.9,16.1c-4.8,8.5-9.8,17.4-19.9,17.4c-10.1,0-15.1-8.8-19.9-17.4
						c-4.6-8.2-9-15.9-17.5-16.1C378.2,208.9,378.2,208,378.2,207.2z"/>
				</g>
				<g>
					<path class="st2" d="M378,225c0.1-0.2,0.2-0.4,0.3-0.6c4.8-8.5,9.8-17.4,19.9-17.4v2.5c-8.8,0-13.2,7.8-17.9,16.1
						c-0.8,1.4-1.6,2.8-2.4,4.1C378,228.2,378,226.6,378,225z"/>
				</g>
			</g>
			<g>
				<line class="st1" x1="376.5" y1="208.4" x2="376.5" y2="229.7"/>
				<line class="st1" x1="365.8" y1="215.2" x2="365.8" y2="241.2"/>
				<line class="st1" x1="355" y1="231.7" x2="355" y2="239.9"/>
				<line class="st1" x1="344.2" y1="229.7" x2="344.2" y2="241.9"/>
				<line class="st1" x1="333.5" y1="213.2" x2="333.5" y2="240.4"/>
				<line class="st1" x1="322.7" y1="207.9" x2="322.7" y2="227.7"/>
				<line class="st1" x1="312" y1="211.2" x2="312" y2="213.2"/>
				<g>
					<path class="st2" d="M342.6,224.4c4.7,8.3,9.1,16.1,17.9,16.1c8.5,0,12.9-7.3,17.4-15.3c0,1.6,0,3.2,0,4.8
						c-4.2,6.9-9,13-17.4,13c-10.1,0-15.1-8.8-19.9-17.4c-4.7-8.3-9.1-16.1-17.9-16.1v-2.5C332.8,207.1,337.8,215.9,342.6,224.4z"/>
				</g>
				<g>
					<path class="st3" d="M302.6,207.2c9.9,0.2,14.8,8.9,19.6,17.3c4.7,8.3,9.1,16.1,17.9,16.1c8.8,0,13.2-7.8,17.9-16.1
						c4.8-8.5,9.8-17.4,19.9-17.4v2.5c-8.8,0-13.2,7.8-17.9,16.1c-4.8,8.5-9.8,17.4-19.9,17.4c-10.1,0-15.1-8.8-19.9-17.4
						c-4.6-8.2-9-15.9-17.5-16.1C302.6,208.9,302.6,208,302.6,207.2z"/>
				</g>
				<g>
					<path class="st2" d="M302.4,225c0.1-0.2,0.2-0.4,0.3-0.6c4.8-8.5,9.8-17.4,19.9-17.4v2.5c-8.8,0-13.2,7.8-17.9,16.1
						c-0.8,1.4-1.6,2.8-2.4,4.1C302.4,228.2,302.4,226.6,302.4,225z"/>
				</g>
			</g>
			<g>
				<line class="st1" x1="300.9" y1="208.4" x2="300.9" y2="229.7"/>
				<line class="st1" x1="290.2" y1="215.2" x2="290.2" y2="241.2"/>
				<line class="st1" x1="279.5" y1="231.7" x2="279.4" y2="239.9"/>
				<line class="st1" x1="268.6" y1="229.7" x2="268.7" y2="241.9"/>
				<line class="st1" x1="258" y1="213.2" x2="258" y2="240.4"/>
				<line class="st1" x1="247.1" y1="207.9" x2="247.1" y2="227.7"/>
				<line class="st1" x1="236.4" y1="211.2" x2="236.4" y2="213.2"/>
				<g>
					<path class="st2" d="M267,224.4c4.7,8.3,9.1,16.1,17.9,16.1c8.5,0,12.9-7.3,17.4-15.3c0,1.6,0,3.2,0,4.8c-4.2,6.9-9,13-17.4,13
						c-10.1,0-15.1-8.8-19.9-17.4c-4.7-8.3-9.1-16.1-17.9-16.1v-2.5C257.2,207.1,262.2,215.9,267,224.4z"/>
				</g>
				<g>
					<path class="st3" d="M227,207.2c9.9,0.2,14.8,8.9,19.6,17.3c4.7,8.3,9.1,16.1,17.9,16.1c8.8,0,13.2-7.8,17.9-16.1
						c4.8-8.5,9.8-17.4,19.9-17.4v2.5c-8.8,0-13.2,7.8-17.9,16.1c-4.8,8.5-9.8,17.4-19.9,17.4c-10.1,0-15.1-8.8-19.9-17.4
						c-4.6-8.2-9-15.9-17.5-16.1C227,208.9,227,208,227,207.2z"/>
				</g>
				<g>
					<path class="st2" d="M226.8,225c0.1-0.2,0.2-0.4,0.3-0.6c4.8-8.5,9.8-17.4,19.9-17.4v2.5c-8.8,0-13.2,7.8-17.9,16.1
						c-0.8,1.4-1.6,2.8-2.4,4.1C226.8,228.2,226.8,226.6,226.8,225z"/>
				</g>
			</g>
			<g>
				<line class="st1" x1="225.4" y1="208.4" x2="225.4" y2="229.7"/>
				<line class="st1" x1="214.6" y1="215.2" x2="214.6" y2="241.2"/>
				<line class="st1" x1="203.9" y1="231.7" x2="203.8" y2="239.9"/>
				<line class="st1" x1="193" y1="229.7" x2="193.1" y2="241.9"/>
				<line class="st1" x1="182.4" y1="213.2" x2="182.4" y2="240.4"/>
				<line class="st1" x1="171.5" y1="207.9" x2="171.5" y2="227.7"/>
				<line class="st1" x1="160.8" y1="211.2" x2="160.8" y2="213.2"/>
				<g>
					<path class="st2" d="M191.4,224.4c4.7,8.3,9.1,16.1,17.9,16.1c8.5,0,12.9-7.3,17.4-15.3c0,1.6,0,3.2,0,4.8
						c-4.2,6.9-9,13-17.4,13c-10.1,0-15.1-8.8-19.9-17.4c-4.7-8.3-9.1-16.1-17.9-16.1v-2.5C181.6,207.1,186.6,215.9,191.4,224.4z"/>
				</g>
				<g>
					<path class="st3" d="M151.4,207.2c9.9,0.2,14.8,8.9,19.6,17.3c4.7,8.3,9.1,16.1,17.9,16.1c8.8,0,13.2-7.8,17.9-16.1
						c4.8-8.5,9.8-17.4,19.9-17.4v2.5c-8.8,0-13.2,7.8-17.9,16.1c-4.8,8.5-9.8,17.4-19.9,17.4c-10.1,0-15.1-8.8-19.9-17.4
						c-4.6-8.2-9-15.9-17.5-16.1C151.4,208.9,151.4,208,151.4,207.2z"/>
				</g>
				<g>
					<path class="st2" d="M151.2,225c0.1-0.2,0.2-0.4,0.3-0.6c4.8-8.5,9.8-17.4,19.9-17.4v2.5c-8.8,0-13.2,7.8-17.9,16.1
						c-0.8,1.4-1.6,2.8-2.4,4.1C151.2,228.2,151.2,226.6,151.2,225z"/>
				</g>
			</g>
			<g>
				<line class="st1" x1="149.8" y1="208.4" x2="149.8" y2="229.7"/>
				<line class="st1" x1="139" y1="215.2" x2="139" y2="241.2"/>
				<line class="st1" x1="128.3" y1="231.7" x2="128.2" y2="239.9"/>
				<line class="st1" x1="117.4" y1="229.7" x2="117.5" y2="241.9"/>
				<line class="st1" x1="106.8" y1="213.2" x2="106.8" y2="240.4"/>
				<line class="st1" x1="95.9" y1="207.9" x2="95.9" y2="227.7"/>
				<line class="st1" x1="85.2" y1="211.2" x2="85.2" y2="213.2"/>
				<g>
					<path class="st2" d="M115.8,224.4c4.7,8.3,9.1,16.1,17.9,16.1c8.5,0,12.9-7.3,17.4-15.3c0,1.6,0,3.2,0,4.8
						c-4.2,6.9-9,13-17.4,13c-10.1,0-15.1-8.8-19.9-17.4c-4.7-8.3-9.1-16.1-17.9-16.1v-2.5C106,207.1,111,215.9,115.8,224.4z"/>
				</g>
				<g>
					<path class="st3" d="M75.8,207.2c9.9,0.2,14.8,8.9,19.6,17.3c4.7,8.3,9.1,16.1,17.9,16.1c8.8,0,13.2-7.8,17.9-16.1
						c4.8-8.5,9.8-17.4,19.9-17.4v2.5c-8.8,0-13.2,7.8-17.9,16.1c-4.8,8.5-9.8,17.4-19.9,17.4c-10.1,0-15.1-8.8-19.9-17.4
						c-4.6-8.2-9-15.9-17.5-16.1C75.8,208.9,75.8,208,75.8,207.2z"/>
				</g>
				<g>
					<path class="st2" d="M75.6,225c0.1-0.2,0.2-0.4,0.3-0.6c4.8-8.5,9.8-17.4,19.9-17.4v2.5c-8.8,0-13.2,7.8-17.9,16.1
						c-0.8,1.4-1.6,2.8-2.4,4.1C75.6,228.2,75.6,226.6,75.6,225z"/>
				</g>
			</g>
			<g>
				<line class="st1" x1="74.2" y1="208.4" x2="74.2" y2="229.7"/>
				<line class="st1" x1="63.4" y1="215.2" x2="63.4" y2="241.2"/>
				<line class="st1" x1="52.7" y1="231.7" x2="52.6" y2="239.9"/>
				<line class="st1" x1="41.8" y1="229.7" x2="41.9" y2="241.9"/>
				<line class="st1" x1="31.2" y1="213.2" x2="31.2" y2="240.4"/>
				<line class="st1" x1="20.4" y1="207.9" x2="20.4" y2="227.7"/>
				<line class="st1" x1="9.6" y1="211.2" x2="9.6" y2="213.2"/>
				<g>
					<path class="st2" d="M40.2,224.4c4.7,8.3,9.1,16.1,17.9,16.1c8.5,0,12.9-7.3,17.4-15.3c0,1.6,0,3.2,0,4.8
						c-4.2,6.9-9,13-17.4,13c-10.1,0-15.1-8.8-19.9-17.4c-4.7-8.3-9.1-16.1-17.9-16.1v-2.5C30.4,207.1,35.4,215.9,40.2,224.4z"/>
				</g>
				<g>
					<path class="st3" d="M0.2,207.2c9.9,0.2,14.8,8.9,19.6,17.3c4.7,8.3,9.1,16.1,17.9,16.1c8.8,0,13.2-7.8,17.9-16.1
						c4.8-8.5,9.8-17.4,19.9-17.4v2.5c-8.8,0-13.2,7.8-17.9,16.1c-4.8,8.5-9.8,17.4-19.9,17.4c-10.1,0-15.1-8.8-19.9-17.4
						c-4.6-8.2-9-15.9-17.5-16.1C0.2,208.9,0.2,208,0.2,207.2z"/>
				</g>
				<g>
					<path class="st2" d="M0,225c0.1-0.2,0.2-0.4,0.3-0.6c4.8-8.5,9.8-17.4,19.9-17.4v2.5c-8.8,0-13.2,7.8-17.9,16.1
						c-0.8,1.4-1.6,2.8-2.4,4.1C0,228.2,0,226.6,0,225z"/>
				</g>
			</g>
		</g>
	</g>
</g>
</svg>
